<svg id="Layer_1" data-name="Layer 1" xmlns="http://www.w3.org/2000/svg" viewBox="0 0 515 272.67"><defs><style>.cls-1,.cls-2{fill:#fff;}.cls-1{stroke:#000;stroke-miterlimit:10;}.cls-3{font-size:18px;font-family:SegoeUI, Segoe UI;}</style></defs><title>drawing-floating-labels</title><rect class="cls-1" x="9" y="14.33" width="496" height="247.5"/><rect class="cls-2" x="30.5" y="40.83" width="453" height="68"/><path d="M483,41.33v67H31v-67H483m1-1H30v69H484v-69Z"/><rect class="cls-2" x="39" y="30.33" width="101" height="19"/><text class="cls-3" transform="translate(52 46.33)">&lt;div&gt;</text><rect class="cls-2" x="30.5" y="133.83" width="453" height="105"/><path d="M483,134.33v104H31v-104H483m1-1H30v106H484v-106Z"/><rect class="cls-2" x="45.31" y="162.27" width="425.46" height="55.36"/><path d="M470.27,162.77v54.36H45.81V162.77H470.27m1-1H44.81v56.36H471.27V161.77Z"/><rect class="cls-2" x="61" y="150.33" width="132" height="19"/><text class="cls-3" transform="translate(74 166.33)">.input-field-alt</text><rect class="cls-2" x="39" y="123.33" width="88" height="19"/><text class="cls-3" transform="translate(52 139.33)">&lt;div&gt;</text><rect class="cls-2" x="45.5" y="68.83" width="425" height="26"/><path d="M470,69.33v25H46v-25H470m1-1H45v27H471v-27Z"/><rect class="cls-2" x="52" y="57.33" width="88" height="19"/><text class="cls-3" transform="translate(63 73.33)">&lt;label&gt;</text><rect class="cls-2" x="30" y="4.33" width="101" height="19"/><text class="cls-3" transform="translate(35 20.33)">.label-float</text></svg>