<svg id="Layer_1" data-name="Layer 1" xmlns="http://www.w3.org/2000/svg" viewBox="0 0 515 341"><defs><style>.cls-1{fill:#fff;}.cls-2{font-size:21px;}.cls-2,.cls-3{font-family:SegoeUI, Segoe UI;}.cls-3{font-size:18px;}</style></defs><title>drawing-modal</title><rect class="cls-1" x="2.23" y="101.5" width="510.54" height="234"/><path d="M512.27,102V335H2.73V102H512.27m1-1H1.73V336H513.27V101Z"/><rect class="cls-1" x="43.54" y="123.5" width="428.5" height="177"/><path d="M471.54,124V300H44.05V124H471.54m1-1H43.05V301H472.54V123Z"/><rect class="cls-1" x="90.31" y="162.94" width="372.19" height="55.36"/><path d="M462,163.44V217.8H90.81V163.44H462m1-1H89.81V218.8H463V162.44Z"/><rect class="cls-1" x="23" y="86" width="195" height="29"/><text class="cls-2" transform="translate(36 104)">.modal-container</text><rect class="cls-1" x="104" y="155" width="142" height="14"/><text class="cls-3" transform="translate(112 166)">.btn-close btn-x</text><rect class="cls-1" x="51" y="114" width="94" height="29"/><text class="cls-2" transform="translate(64 132)">.modal</text><rect class="cls-1" x="90.31" y="235.94" width="372.19" height="55.36"/><path d="M462,236.44V290.8H90.81V236.44H462m1-1H89.81V291.8H463V235.44Z"/><rect class="cls-1" x="104" y="228" width="97" height="14"/><text class="cls-3" transform="translate(112 239)">.btn-close</text><rect class="cls-1" x="2.31" y="18.94" width="372.19" height="55.36"/><path d="M374,19.44V73.8H2.81V19.44H374m1-1H1.81V74.8H375V18.44Z"/><rect class="cls-1" x="19" y="11" width="149" height="14"/><text class="cls-3" transform="matrix(1, 0.01, -0.01, 1, 23.98, 21.59)">.open-modal-btn</text></svg>