<svg id="Layer_1" data-name="Layer 1" xmlns="http://www.w3.org/2000/svg" viewBox="0 0 515 309"><defs><style>.cls-1{fill:#fff;}.cls-2{font-size:18px;font-family:SegoeUI, Segoe UI;}</style></defs><title>drawing-buttons</title><rect class="cls-1" x="45.31" y="38.94" width="425.46" height="55.36"/><path d="M470.27,39.44V93.8H45.81V39.44H470.27m1-1H44.81V94.8H471.27V38.44Z"/><rect class="cls-1" x="59" y="31" width="105" height="14"/><text class="cls-2" transform="translate(67 42)">button.btn</text><rect class="cls-1" x="45.31" y="128.94" width="425.46" height="55.36"/><path d="M470.27,129.44V183.8H45.81V129.44H470.27m1-1H44.81V184.8H471.27V128.44Z"/><rect class="cls-1" x="59" y="121" width="55" height="14"/><text class="cls-2" transform="translate(67 132)">a.btn</text><rect class="cls-1" x="45.31" y="211.94" width="425.46" height="55.36"/><path d="M470.27,212.44V266.8H45.81V212.44H470.27m1-1H44.81V267.8H471.27V211.44Z"/><rect class="cls-1" x="59" y="204" width="87" height="14"/><text class="cls-2" transform="translate(67 215)">label.btn</text></svg>