<svg id="Layer_1" data-name="Layer 1" xmlns="http://www.w3.org/2000/svg" viewBox="0 0 515 309"><defs><style>.cls-1{fill:#fff;}.cls-2{font-size:21px;}.cls-2,.cls-3{font-family:SegoeUI, Segoe UI;}.cls-3{font-size:18px;}</style></defs><title>drawing-radios</title><rect class="cls-1" x="2.23" y="17.5" width="510.54" height="289"/><path d="M512.27,18V306H2.73V18H512.27m1-1H1.73V307H513.27V17Z"/><rect class="cls-1" x="45.31" y="60.94" width="425.46" height="55.36"/><path d="M470.27,61.44V115.8H45.81V61.44H470.27m1-1H44.81V116.8H471.27V60.44Z"/><rect class="cls-1" x="45.31" y="138.43" width="425.46" height="55.36"/><path d="M470.27,138.93v54.36H45.81V138.93H470.27m1-1H44.81v56.36H471.27V137.93Z"/><rect class="cls-1" x="44.23" y="215.92" width="425.46" height="55.36"/><path d="M469.19,216.42v54.36H44.73V216.42H469.19m1-1H43.73v56.36H470.19V215.42Z"/><circle class="cls-1" cx="75.5" cy="88.5" r="16"/><path d="M75.5,73A15.5,15.5,0,1,1,60,88.5,15.51,15.51,0,0,1,75.5,73m0-1A16.5,16.5,0,1,0,92,88.5,16.5,16.5,0,0,0,75.5,72Z"/><circle class="cls-1" cx="75.5" cy="166.5" r="16"/><path d="M75.5,151A15.5,15.5,0,1,1,60,166.5,15.51,15.51,0,0,1,75.5,151m0-1A16.5,16.5,0,1,0,92,166.5,16.5,16.5,0,0,0,75.5,150Z"/><circle class="cls-1" cx="75.5" cy="242.5" r="16"/><path d="M75.5,227A15.5,15.5,0,1,1,60,242.5,15.51,15.51,0,0,1,75.5,227m0-1A16.5,16.5,0,1,0,92,242.5,16.5,16.5,0,0,0,75.5,226Z"/><rect class="cls-1" x="112.5" y="75.5" width="269" height="26"/><path d="M381,76v25H113V76H381m1-1H112v27H382V75Z"/><rect class="cls-1" x="112.5" y="153.5" width="269" height="26"/><path d="M381,154v25H113V154H381m1-1H112v27H382V153Z"/><rect class="cls-1" x="112.5" y="230.5" width="269" height="26"/><path d="M381,231v25H113V231H381m1-1H112v27H382V230Z"/><rect class="cls-1" x="23" y="2" width="195" height="29"/><text class="cls-2" transform="translate(36 20)">.control-container</text><rect class="cls-1" x="59" y="53" width="125" height="14"/><text class="cls-3" transform="translate(67 64)">.control .radio</text></svg>