<svg id="Layer_1" data-name="Layer 1" xmlns="http://www.w3.org/2000/svg" viewBox="0 0 515 309"><defs><style>.cls-1{fill:#fff;}.cls-2{font-size:21px;}.cls-2,.cls-3{font-family:SegoeUI, Segoe UI;}.cls-3{font-size:18px;}</style></defs><title>drawing-checkbox-new-2.0</title><rect class="cls-1" x="2.23" y="17.5" width="510.54" height="289"/><path d="M512.27,18V306H2.73V18H512.27m1-1H1.73V307H513.27V17Z"/><rect class="cls-1" x="45.31" y="60.94" width="425.46" height="55.36"/><path d="M470.27,61.44V115.8H45.81V61.44H470.27m1-1H44.81V116.8H471.27V60.44Z"/><rect class="cls-1" x="45.31" y="138.43" width="425.46" height="55.36"/><path d="M470.27,138.93v54.36H45.81V138.93H470.27m1-1H44.81v56.36H471.27V137.93Z"/><rect class="cls-1" x="44.23" y="215.92" width="425.46" height="55.36"/><path d="M469.19,216.42v54.36H44.73V216.42H469.19m1-1H43.73v56.36H470.19V215.42Z"/><rect class="cls-1" x="116.5" y="74.5" width="269" height="26"/><path d="M385,75v25H117V75H385m1-1H116v27H386V74Z"/><rect class="cls-1" x="116.5" y="152.5" width="269" height="26"/><path d="M385,153v25H117V153H385m1-1H116v27H386V152Z"/><rect class="cls-1" x="116.5" y="229.5" width="269" height="26"/><path d="M385,230v25H117V230H385m1-1H116v27H386V229Z"/><rect class="cls-1" x="60.5" y="72.5" width="32" height="32"/><path d="M92,73v31H61V73H92m1-1H60v33H93V72Z"/><rect class="cls-1" x="60.5" y="150.5" width="32" height="32"/><path d="M92,151v31H61V151H92m1-1H60v33H93V150Z"/><rect class="cls-1" x="60.5" y="226.5" width="32" height="32"/><path d="M92,227v31H61V227H92m1-1H60v33H93V226Z"/><rect class="cls-1" x="24" y="2" width="212" height="29"/><text class="cls-2" transform="translate(36 20)">.checkbox-container</text><rect class="cls-1" x="61" y="46" width="237" height="19"/><text class="cls-3" transform="translate(69 62)">.control-row .checkbox-row </text></svg>