<svg id="Layer_1" data-name="Layer 1" xmlns="http://www.w3.org/2000/svg" viewBox="0 0 515 229"><defs><style>.cls-1{fill:#fff;}.cls-2{font-size:21px;}.cls-2,.cls-3{font-family:SegoeUI, Segoe UI;}.cls-3{font-size:18px;}</style></defs><title>drawing-fileupload</title><rect class="cls-1" x="2.23" y="15.5" width="510.54" height="211"/><path d="M512.27,16V226H2.73V16H512.27m1-1H1.73V227H513.27V15Z"/><rect class="cls-1" x="45.31" y="58.94" width="425.46" height="55.36"/><path d="M470.27,59.44V113.8H45.81V59.44H470.27m1-1H44.81V114.8H471.27V58.44Z"/><rect class="cls-1" x="45.31" y="136.43" width="425.46" height="55.36"/><path d="M470.27,136.93v54.36H45.81V136.93H470.27m1-1H44.81v56.36H471.27V135.93Z"/><rect class="cls-1" x="23" width="195" height="29"/><text class="cls-2" transform="translate(36 18)">.attachment</text><rect class="cls-1" x="59" y="51" width="57" height="14"/><text class="cls-3" transform="translate(67 62)">label</text><rect class="cls-1" x="59" y="131" width="152" height="14"/><text class="cls-3" transform="translate(67 141)">input[type=”file”]</text></svg>